<?xml version="1.0" encoding="iso-8859-1"?>
<!-- Generator: Adobe Illustrator 19.0.0, SVG Export Plug-In . SVG Version: 6.00 Build 0)  -->
<svg version="1.1" id="Layer_1" xmlns="http://www.w3.org/2000/svg" xmlns:xlink="http://www.w3.org/1999/xlink" x="0px" y="0px"
	 viewBox="0 0 512 512" style="enable-background:new 0 0 512 512;" xml:space="preserve">
<g>
	<path style="fill:#FFCA12;" d="M351.104,221.877v-79.494h-36.712c-2.775-9.353-6.495-18.298-11.066-26.717l25.959-25.959
		l-56.211-56.21l-25.959,25.959c-8.418-4.571-17.365-8.291-26.717-11.066V11.678h-79.494V48.39
		c-9.353,2.775-18.298,6.496-26.717,11.066L88.229,33.497L32.018,89.708l25.959,25.959c-4.571,8.418-8.291,17.365-11.066,26.717
		H10.199v79.494h36.712c2.775,9.353,6.495,18.298,11.066,26.717l-25.959,25.959l56.211,56.21l25.959-25.959
		c8.418,4.571,17.365,8.291,26.717,11.066v36.712h79.494V315.87c9.353-2.775,18.298-6.496,26.717-11.066l25.959,25.959l56.211-56.21
		l-25.959-25.959c4.571-8.418,8.291-17.365,11.066-26.717H351.104z M180.651,245.954c-35.249,0-63.825-28.575-63.825-63.825
		s28.575-63.825,63.825-63.825s63.825,28.575,63.825,63.825S215.901,245.954,180.651,245.954z"/>
	<path style="fill:#FFCA12;" d="M484.685,457.985l17.116-42.866l-19.797-7.904c0.517-5.641,0.438-11.266-0.215-16.79l19.588-8.409
		l-18.208-42.413l-19.588,8.409c-3.555-4.278-7.579-8.209-12.024-11.72l7.904-19.797l-42.866-17.116l-7.904,19.797
		c-5.641-0.517-11.266-0.438-16.79,0.215l-8.409-19.588l-42.413,18.208l8.409,19.588c-4.278,3.555-8.209,7.579-11.72,12.024
		l-19.797-7.904l-17.116,42.866l19.797,7.904c-0.517,5.641-0.438,11.266,0.215,16.79l-19.588,8.409l18.208,42.413l19.588-8.409
		c3.555,4.278,7.579,8.209,12.024,11.72l-7.904,19.797l42.866,17.116l7.904-19.797c5.641,0.517,11.266,0.438,16.79-0.215
		l8.409,19.588l42.413-18.208l-8.409-19.588c4.278-3.555,8.209-7.579,11.72-12.024L484.685,457.985z M387.586,434.267
		c-19.008-7.589-28.264-29.151-20.675-48.159c7.589-19.008,29.151-28.264,48.159-20.675c19.008,7.589,28.264,29.151,20.675,48.159
		C428.155,432.6,406.593,441.857,387.586,434.267z"/>
</g>
<path d="M339.485,274.553c0-2.705-1.075-5.3-2.987-7.212l-20.721-20.721c2.258-4.73,4.271-9.589,6.023-14.544h29.306
	c5.633,0,10.199-4.566,10.199-10.199v-79.494c0-5.633-4.566-10.199-10.199-10.199H321.8c-1.752-4.954-3.765-9.814-6.023-14.544
	l20.722-20.721c3.983-3.983,3.983-10.441,0-14.425l-56.211-56.21c-3.983-3.982-10.441-3.982-14.424,0l-20.722,20.721
	c-4.731-2.258-9.589-4.27-14.544-6.023V11.678c0-5.633-4.566-10.199-10.199-10.199h-79.494c-5.633,0-10.199,4.566-10.199,10.199
	v29.305c-4.953,1.751-9.813,3.764-14.544,6.023L95.44,26.285c-3.983-3.983-10.441-3.983-14.424,0l-56.21,56.21
	c-3.983,3.983-3.983,10.441,0,14.425l20.721,20.721c-2.258,4.73-4.271,9.59-6.023,14.544H10.199C4.566,132.184,0,136.751,0,142.384
	v79.494c0,5.633,4.566,10.199,10.199,10.199h29.305c1.752,4.954,3.764,9.814,6.023,14.544l-20.721,20.721
	c-1.912,1.912-2.987,4.507-2.987,7.212s1.075,5.299,2.987,7.212l56.21,56.211c1.912,1.912,4.507,2.987,7.212,2.987
	c2.705,0,5.299-1.075,7.212-2.987l20.721-20.722c4.731,2.258,9.59,4.271,14.544,6.023v29.305c0,5.633,4.566,10.199,10.199,10.199
	h79.494c5.633,0,10.199-4.566,10.199-10.199v-29.305c4.954-1.752,9.813-3.764,14.544-6.023l20.721,20.722
	c1.912,1.912,4.507,2.987,7.212,2.987s5.3-1.075,7.212-2.987l56.21-56.211C338.41,279.852,339.485,277.258,339.485,274.553z
	 M273.074,316.34l-18.747-18.747c-3.194-3.193-8.109-3.907-12.079-1.751c-7.834,4.253-16.162,7.702-24.752,10.251
	c-4.329,1.285-7.298,5.263-7.298,9.778v26.513h-59.095v-26.513c0-4.515-2.969-8.493-7.298-9.778
	c-8.59-2.549-16.917-5.998-24.752-10.251c-3.97-2.155-8.882-1.443-12.079,1.751L88.227,316.34l-41.786-41.787l18.747-18.746
	c3.194-3.194,3.907-8.109,1.751-12.079c-4.253-7.834-7.702-16.162-10.251-24.751c-1.284-4.329-5.263-7.298-9.778-7.298H20.398
	v-59.095h26.513c4.515,0,8.494-2.969,9.778-7.299c2.549-8.59,5.998-16.917,10.251-24.751c2.155-3.97,1.443-8.885-1.751-12.079
	L46.442,89.708l41.786-41.786l18.747,18.747c3.194,3.193,8.109,3.907,12.078,1.751c7.835-4.253,16.163-7.702,24.752-10.251
	c4.329-1.285,7.298-5.263,7.298-9.778V21.877h59.095V48.39c0,4.515,2.969,8.493,7.298,9.778c8.591,2.55,16.918,5.998,24.752,10.251
	c3.972,2.156,8.885,1.443,12.078-1.751l18.747-18.747l41.786,41.786l-18.747,18.747c-3.194,3.194-3.906,8.109-1.751,12.079
	c4.252,7.832,7.701,16.159,10.251,24.751c1.285,4.329,5.263,7.298,9.778,7.298h26.513v59.095H314.39
	c-4.515,0-8.493,2.969-9.778,7.298c-2.55,8.592-5.999,16.92-10.251,24.752c-2.155,3.971-1.443,8.885,1.751,12.079l18.747,18.746
	L273.074,316.34z"/>
<path d="M254.675,182.13c0-40.817-33.207-74.024-74.024-74.024c-40.816,0-74.023,33.207-74.023,74.024s33.207,74.024,74.023,74.024
	C221.469,256.154,254.675,222.947,254.675,182.13z M127.027,182.13c0-29.569,24.056-53.625,53.624-53.625
	s53.625,24.056,53.625,53.625s-24.056,53.625-53.625,53.625S127.027,211.698,127.027,182.13z"/>
<path d="M271.987,203.528c-5.315-1.875-11.138,0.914-13.011,6.226c-11.687,33.139-43.164,55.404-78.325,55.404
	c-5.633,0-10.199,4.566-10.199,10.199s4.566,10.199,10.199,10.199c43.795,0,83.002-27.736,97.561-69.017
	C280.086,211.227,277.299,205.401,271.987,203.528z"/>
<path d="M273.878,171.931c-5.633,0-10.199,4.566-10.199,10.199c0,1.32-0.031,2.651-0.092,3.953
	c-0.263,5.627,4.085,10.402,9.711,10.665c0.163,0.007,0.324,0.011,0.486,0.011c5.414,0,9.924-4.258,10.18-9.722
	c0.075-1.62,0.114-3.271,0.114-4.908C284.077,176.497,279.511,171.931,273.878,171.931z"/>
<path d="M418.852,355.962c-24.202-9.664-51.75,2.165-61.412,26.365c-9.663,24.201,2.164,51.75,26.364,61.412l0,0
	c5.73,2.288,11.643,3.371,17.466,3.371c18.773,0,36.571-11.264,43.946-29.735C454.879,393.175,443.052,365.625,418.852,355.962z
	 M426.273,409.811c-2.66,6.663-7.757,11.891-14.348,14.722c-6.592,2.83-13.892,2.924-20.556,0.263l0,0
	c-13.755-5.492-20.477-21.15-14.985-34.905s21.152-20.476,34.905-14.985C425.043,380.398,431.765,396.056,426.273,409.811z"/>
<path d="M511.173,411.095c-1.067-2.486-3.078-4.446-5.59-5.448l-13.045-5.208c0.008-1.171-0.007-2.341-0.044-3.51l12.906-5.541
	c2.486-1.067,4.446-3.078,5.448-5.59c1.003-2.512,0.967-5.32-0.1-7.805l-18.209-42.413c-2.221-5.175-8.22-7.572-13.396-5.348
	l-12.906,5.541c-0.822-0.832-1.659-1.649-2.514-2.45l5.209-13.045c2.089-5.231-0.459-11.165-5.69-13.254l-42.866-17.116
	c-5.229-2.087-11.165,0.459-13.254,5.69l-5.209,13.045c-1.167-0.009-2.34,0.007-3.51,0.044l-5.54-12.908
	c-1.067-2.486-3.078-4.446-5.59-5.448c-2.511-1.003-5.32-0.968-7.805,0.1l-42.413,18.209c-5.176,2.222-7.571,8.22-5.348,13.396
	l5.541,12.906c-0.832,0.822-1.649,1.66-2.45,2.514l-13.044-5.209c-2.512-1.003-5.32-0.968-7.805,0.1
	c-2.486,1.067-4.446,3.078-5.448,5.589L291.384,380.8c-2.089,5.231,0.459,11.165,5.69,13.254l13.045,5.209
	c-0.008,1.17,0.007,2.341,0.044,3.51l-12.906,5.541c-2.486,1.067-4.446,3.078-5.448,5.59c-1.003,2.512-0.967,5.32,0.1,7.805
	l18.209,42.413c1.067,2.486,3.078,4.446,5.59,5.448c2.511,1.003,5.32,0.968,7.805-0.1l12.906-5.541
	c0.822,0.832,1.659,1.649,2.514,2.45l-5.209,13.045c-2.089,5.231,0.459,11.165,5.69,13.254l42.866,17.116
	c1.215,0.485,2.499,0.727,3.782,0.727c1.37,0,2.741-0.276,4.024-0.827c2.486-1.067,4.446-3.078,5.448-5.59l5.208-13.044
	c1.169,0.005,2.342-0.007,3.51-0.045l5.541,12.906c2.221,5.176,8.217,7.57,13.396,5.348l42.413-18.209
	c2.486-1.067,4.446-3.078,5.448-5.59c1.003-2.512,0.967-5.32-0.1-7.805l-5.541-12.906c0.832-0.822,1.649-1.659,2.45-2.514
	l13.045,5.209c5.229,2.087,11.165-0.459,13.254-5.69l17.116-42.866C512.276,416.388,512.24,413.58,511.173,411.095z M478.995,444.73
	l-10.325-4.122c-4.194-1.675-8.989-0.393-11.786,3.152c-3.039,3.849-6.484,7.383-10.236,10.502
	c-3.474,2.887-4.634,7.716-2.852,11.867l4.386,10.216l-23.67,10.161l-4.386-10.216c-1.782-4.15-6.079-6.633-10.567-6.105
	c-4.845,0.572-9.779,0.635-14.663,0.187c-4.497-0.41-8.729,2.182-10.403,6.375l-4.123,10.325l-23.922-9.552l4.122-10.325
	c1.675-4.193,0.393-8.989-3.152-11.786c-3.849-3.039-7.383-6.484-10.502-10.236c-2.887-3.474-7.716-4.635-11.867-2.852
	l-10.216,4.386l-10.161-23.67l10.216-4.386c4.151-1.782,6.636-6.082,6.105-10.568c-0.572-4.844-0.635-9.777-0.188-14.662
	c0.412-4.496-2.182-8.728-6.374-10.403l-10.325-4.123l9.552-23.922l10.325,4.123c4.194,1.674,8.989,0.392,11.787-3.152
	c3.04-3.85,6.484-7.384,10.235-10.501c3.474-2.887,4.635-7.716,2.853-11.867l-4.386-10.216l23.67-10.161l4.386,10.216
	c1.782,4.15,6.078,6.633,10.567,6.105c4.847-0.572,9.781-0.634,14.662-0.188c4.499,0.411,8.729-2.181,10.404-6.375l4.123-10.326
	l23.922,9.552l-4.123,10.326c-1.675,4.193-0.392,8.989,3.152,11.786c3.85,3.04,7.383,6.484,10.501,10.235
	c2.888,3.474,7.716,4.635,11.867,2.853l10.216-4.386l10.161,23.67l-10.216,4.386c-4.151,1.782-6.635,6.082-6.105,10.568
	c0.572,4.845,0.635,9.777,0.188,14.661c-0.413,4.497,2.181,8.729,6.375,10.404l10.325,4.123L478.995,444.73z"/>
<g>
</g>
<g>
</g>
<g>
</g>
<g>
</g>
<g>
</g>
<g>
</g>
<g>
</g>
<g>
</g>
<g>
</g>
<g>
</g>
<g>
</g>
<g>
</g>
<g>
</g>
<g>
</g>
<g>
</g>
</svg>
